<svg xmlns="http://www.w3.org/2000/svg" viewBox="0 0 1280 640" width="1280" height="640">
<rect width="1280" height="640" fill="#F3F5F1"/>
<rect x="0" y="0" width="1280" height="6" fill="#0E7C6B"/>
<text x="64" y="92" font-family="Helvetica,Arial,sans-serif" font-size="14" letter-spacing="4"
  fill="#55617A" textLength="330" lengthAdjust="spacing">OPEN DATA EXPLORER</text>
<text x="60" y="168" font-family="Georgia,'Times New Roman',serif" font-size="56"
  font-weight="600" fill="#16233B" textLength="560" lengthAdjust="spacingAndGlyphs">Rural Health Statistics</text>
<text x="60" y="232" font-family="Georgia,'Times New Roman',serif" font-size="56"
  font-weight="600" fill="#16233B" textLength="200" lengthAdjust="spacingAndGlyphs">of India</text>
<text x="64" y="286" font-family="Helvetica,Arial,sans-serif" font-size="18" fill="#55617A"
  textLength="500" lengthAdjust="spacing">Nineteen years of the Government of India's annual reports,</text>
<text x="64" y="314" font-family="Helvetica,Arial,sans-serif" font-size="18" fill="#55617A"
  textLength="430" lengthAdjust="spacing">one analysis ready and source verified dataset.</text>
<text x="64" y="452" font-family="Georgia,serif" font-size="34" font-weight="700" fill="#16233B">2,31,597</text><text x="64" y="476" font-family="Helvetica,Arial,sans-serif" font-size="13" fill="#55617A">observations</text><text x="222" y="452" font-family="Georgia,serif" font-size="34" font-weight="700" fill="#16233B">863</text><text x="222" y="476" font-family="Helvetica,Arial,sans-serif" font-size="13" fill="#55617A">indicators</text><text x="380" y="452" font-family="Georgia,serif" font-size="34" font-weight="700" fill="#16233B">36</text><text x="380" y="476" font-family="Helvetica,Arial,sans-serif" font-size="13" fill="#55617A">States and UTs</text><text x="538" y="452" font-family="Georgia,serif" font-size="34" font-weight="700" fill="#16233B">19</text><text x="538" y="476" font-family="Helvetica,Arial,sans-serif" font-size="13" fill="#55617A">years, 2005 to 2023</text>
<rect x="736" y="26" width="512" height="588" rx="14" fill="#FFFFFF" stroke="#DCE1D8" stroke-width="1.5"/><g transform="translate(775,46) scale(0.655)"><path d="M600.4 399.4L600.5 396.4L598.2 380.2L596.7 376.7L594.8 375.1L595.3 371.9L594.2 367.2L595.6 366.4L594.7 364.9L592.4 356.5L592.0 352.0L593.7 349.4L593.4 345.7L593.8 342.3L593.0 340.7L596.1 340.5L596.4 343.0L598.8 342.4L599.2 340.6L600.7 340.4L601.0 338.4L602.6 337.8L604.4 333.6L605.3 336.1L607.6 336.8L610.4 336.3L610.7 341.0L609.6 344.1L615.2 345.9L619.8 349.0L620.5 359.5L619.7 360.3L620.0 363.2L618.9 364.7L619.7 367.6L618.8 371.5L617.5 373.3L615.0 371.9L613.2 373.2L613.7 375.3L612.5 379.0L612.5 381.1L613.6 384.4L613.4 387.3L614.8 388.5L615.0 392.4L614.1 395.0L611.4 394.4L610.1 398.3L608.7 399.3L603.0 395.7L602.6 398.6Z" fill="rgb(58,125,68)" stroke="#B9C2B4" stroke-width="1.1"/><path d="M226.1 754.5L226.2 752.6L223.8 748.3L225.9 744.7L224.4 743.5L223.3 741.3L226.2 737.5L226.5 733.7L229.5 727.7L227.4 725.7L226.2 726.5L223.7 725.4L225.7 720.5L224.9 718.5L226.1 714.5L226.7 709.1L224.1 705.9L221.9 707.0L219.2 709.5L217.0 708.4L215.6 706.3L215.2 704.1L215.7 699.6L217.4 694.7L215.5 692.4L211.3 690.6L213.7 686.9L212.2 684.6L212.5 682.6L210.6 683.8L206.0 683.7L208.0 681.8L208.6 679.5L206.5 678.7L201.0 675.1L204.5 673.1L205.5 671.3L207.7 670.4L208.9 672.6L215.9 673.3L215.6 671.7L217.4 668.0L220.0 667.5L222.4 668.6L226.8 667.7L230.1 668.8L231.7 664.1L236.2 663.9L237.0 661.7L238.6 659.7L237.9 658.6L234.6 657.2L232.0 657.4L231.2 656.3L233.1 655.0L234.7 653.0L235.2 649.8L234.0 649.1L234.3 645.1L237.7 645.0L239.0 643.0L239.9 639.9L242.3 639.2L243.6 640.7L245.5 640.2L247.3 642.1L249.7 642.7L251.4 645.2L254.1 646.2L258.5 642.1L259.2 636.6L265.8 633.8L268.3 634.1L272.4 635.8L274.2 633.6L274.1 632.2L275.4 633.1L279.2 631.4L278.4 627.6L281.6 627.4L281.5 629.1L285.1 628.6L285.6 630.5L287.9 630.0L288.2 628.0L291.6 626.8L293.8 622.2L294.8 623.5L298.1 623.5L299.4 621.5L300.8 624.7L301.3 629.1L300.2 632.6L299.1 642.2L296.3 651.8L289.4 661.4L289.0 663.8L287.6 663.7L285.2 665.8L288.2 666.7L287.0 672.6L287.2 675.2L288.3 677.8L289.4 684.3L289.2 689.3L286.7 689.0L286.1 690.8L288.5 692.1L289.2 693.5L289.5 707.8L287.2 708.1L277.9 706.9L275.0 709.2L274.0 711.6L274.6 713.9L268.0 723.4L266.8 725.9L266.0 729.2L268.1 732.1L270.1 733.7L272.3 734.1L276.7 733.4L275.9 735.1L273.5 734.2L265.4 734.8L258.2 738.1L254.4 738.5L253.4 739.1L249.6 742.2L248.3 744.6L248.0 746.7L248.8 748.1L247.4 750.0L247.6 754.7L245.5 757.9L240.2 761.2L239.0 763.5L234.0 764.2L233.2 765.8L230.5 765.4L225.3 763.1L222.1 760.2Z" fill="rgb(151,186,156)" stroke="#B9C2B4" stroke-width="1.1"/><path d="M207.2 421.0L206.9 422.1L204.6 424.0L199.3 423.9L199.1 419.3L197.6 416.2L180.2 416.0L176.0 415.2L173.5 413.8L172.1 411.1L167.5 409.3L165.4 409.8L160.7 408.5L158.8 406.9L159.2 402.0L157.5 400.7L157.0 398.9L153.3 401.4L150.0 401.0L148.8 399.3L149.5 397.1L149.4 394.1L147.8 391.9L148.1 390.3L151.1 391.3L151.7 388.1L149.4 388.7L147.9 385.2L150.1 386.0L152.9 382.8L155.7 383.0L156.3 380.5L157.8 378.2L157.7 375.8L156.0 376.1L154.2 371.8L155.8 370.5L158.8 371.2L164.4 367.6L159.4 365.0L160.4 362.4L165.3 359.1L167.1 358.9L169.0 355.9L169.4 353.3L168.5 350.4L170.2 346.0L167.9 342.5L168.6 341.5L167.6 340.7L164.8 340.7L165.5 338.2L167.3 336.0L166.3 334.8L163.5 334.4L165.6 331.7L165.3 329.7L166.1 327.8L168.1 330.4L170.7 328.9L170.3 327.0L167.5 326.1L166.6 323.5L168.5 322.7L169.8 324.5L171.8 324.9L173.7 324.0L173.6 321.7L175.5 319.8L179.4 320.3L179.1 322.0L175.3 327.4L182.0 329.2L184.3 328.6L185.7 329.2L190.0 327.1L191.0 329.6L193.3 332.8L192.8 335.5L190.0 335.2L188.6 336.7L190.7 340.7L189.2 343.3L191.3 345.6L188.0 348.0L183.6 346.4L182.1 349.3L184.6 350.9L185.1 352.5L187.7 353.7L190.2 350.6L193.7 349.8L196.3 345.4L198.4 344.8L198.1 342.0L203.1 340.7L209.2 341.6L211.0 340.0L211.8 342.1L214.8 344.0L216.8 343.7L217.8 341.5L216.3 339.9L215.6 337.7L215.9 335.6L215.2 333.1L216.3 332.7L219.1 335.0L221.4 332.5L220.5 328.5L218.4 327.1L216.1 327.5L214.9 325.9L218.4 324.3L216.3 321.8L216.6 319.7L219.7 318.8L221.8 319.4L223.9 317.9L226.2 317.8L227.3 318.7L229.3 317.7L229.7 314.9L228.6 310.0L227.3 309.5L225.4 310.8L225.1 312.4L221.7 312.0L218.3 313.3L216.2 312.1L213.8 312.4L211.6 311.6L209.7 310.1L207.8 306.9L207.5 303.2L208.6 298.8L210.9 296.9L212.7 297.1L214.5 296.0L217.2 292.1L222.6 288.9L226.3 287.5L230.3 283.9L232.8 283.7L237.8 280.4L239.8 280.0L241.7 277.2L244.1 276.2L246.2 276.7L246.8 273.6L252.8 271.7L253.7 273.0L257.4 274.4L263.1 274.3L265.4 276.2L268.6 276.9L268.2 279.3L271.8 282.9L271.8 285.6L268.3 289.3L268.8 292.3L267.2 293.8L267.0 295.8L265.7 296.8L262.7 301.9L263.9 304.5L261.6 304.9L260.1 306.1L255.1 305.8L253.7 309.1L252.7 308.9L252.4 309.4L252.5 312.2L255.0 317.6L252.3 318.6L252.5 320.5L248.3 324.1L250.8 329.7L250.6 335.3L253.1 337.3L252.1 338.5L253.6 340.2L256.3 336.8L258.4 337.8L261.2 341.1L263.7 342.4L267.8 338.0L268.1 335.5L266.4 335.0L267.3 332.7L265.6 330.3L262.4 331.3L263.1 328.6L262.9 324.5L260.6 323.5L259.5 321.9L259.7 318.9L256.6 313.5L260.2 310.7L263.0 311.5L261.9 308.8L265.7 307.3L267.1 307.9L265.5 310.7L267.5 311.7L265.3 315.9L265.5 316.7L266.8 315.4L270.0 315.0L271.7 317.9L274.5 317.8L276.4 316.9L274.9 313.6L275.3 312.3L277.1 312.1L279.1 314.1L278.0 316.3L278.4 318.0L280.5 318.7L282.4 316.3L284.9 317.6L286.7 317.1L289.0 318.2L289.4 315.7L293.7 311.8L298.3 310.4L300.6 310.6L300.5 313.3L302.8 314.4L303.4 316.2L299.3 320.2L301.2 320.5L302.7 319.0L304.5 321.4L305.1 319.7L307.3 318.4L310.3 319.1L310.6 317.7L313.5 315.9L314.3 319.1L313.2 319.9L313.9 322.7L316.0 321.7L318.1 322.0L320.2 323.3L321.2 323.1L323.7 319.4L324.1 316.4L326.9 317.3L329.5 316.9L330.5 315.9L332.6 316.6L333.6 319.2L336.6 320.7L339.1 321.1L340.3 324.9L347.0 326.2L349.0 331.2L351.9 331.5L351.9 330.0L358.1 328.8L359.0 330.4L360.6 330.2L361.2 332.0L359.9 334.0L359.1 337.1L360.5 337.4L359.9 342.8L357.9 343.7L361.5 348.1L358.6 349.2L357.2 351.4L353.8 352.8L348.1 351.8L346.8 351.0L343.7 351.9L341.9 350.7L339.8 350.5L337.1 352.2L335.0 351.3L333.6 349.1L332.0 350.1L332.2 351.4L334.3 354.4L332.3 356.0L332.2 359.9L335.8 359.0L337.3 359.9L339.7 359.4L341.3 362.5L344.2 362.9L346.6 365.1L344.7 370.7L340.3 371.3L340.5 373.8L338.3 376.3L336.2 376.7L336.7 379.6L335.1 382.1L333.1 383.5L332.5 385.6L328.9 386.8L325.3 385.9L323.4 387.6L322.0 386.8L320.0 388.2L320.2 392.0L318.4 393.4L317.4 398.1L315.0 396.8L313.2 402.4L313.5 404.0L312.8 406.0L311.3 406.0L310.3 408.6L310.9 413.5L309.0 417.2L308.1 417.6L305.8 415.6L303.2 414.4L302.0 412.2L299.4 409.7L295.8 409.9L294.5 411.4L290.9 412.2L286.5 410.1L281.6 411.8L280.6 408.3L278.0 408.3L274.2 407.1L273.9 409.0L270.4 410.1L267.9 409.7L266.4 410.5L266.0 412.8L258.3 413.2L256.5 412.1L254.6 412.9L254.3 411.0L252.4 410.5L249.5 411.5L248.4 412.9L244.8 414.9L241.2 415.9L239.2 415.2L231.6 416.1L230.8 411.4L233.7 412.1L232.9 407.5L231.4 405.7L226.5 406.1L224.8 407.9L221.2 407.3L219.8 408.2L219.6 407.8L217.3 410.3L216.1 409.9L214.3 411.3L214.4 413.8L210.4 417.3L211.4 418.6L210.5 421.1Z" fill="rgb(209,140,136)" stroke="#B9C2B4" stroke-width="1.1"/><path d="M154.1 542.9L154.5 545.5L154.2 548.9L155.6 550.6L158.2 550.9L158.2 553.6L155.5 555.4L157.8 556.4L155.9 560.0L154.9 563.7L152.3 564.2L151.6 563.2L149.4 564.8L149.3 566.6L146.2 567.7L145.0 564.3L138.8 564.6L136.4 559.8L134.5 559.1L131.0 547.9L130.6 541.3L129.5 538.3L129.8 536.3L128.8 534.0L129.1 528.1L127.5 524.2L128.0 522.7L126.5 521.1L126.4 515.8L123.1 505.4L121.4 501.6L121.3 498.5L122.7 497.9L119.9 495.6L119.5 492.7L120.4 490.7L118.5 486.5L118.8 483.9L117.2 481.1L118.1 477.3L116.8 475.2L117.1 470.6L115.2 464.4L115.1 461.6L113.6 456.6L113.8 454.0L115.5 453.0L114.9 450.3L118.9 446.3L121.1 446.8L121.2 448.9L125.4 450.0L128.1 449.1L129.4 446.8L132.2 446.9L131.9 442.1L133.5 439.2L133.6 436.9L132.0 435.9L133.6 433.4L137.0 435.8L138.0 437.4L140.2 437.4L142.5 436.0L143.4 433.1L144.4 433.2L145.0 430.2L143.7 427.7L142.7 426.0L141.7 425.8L138.3 421.9L141.9 421.4L142.1 418.9L145.0 418.1L145.4 415.6L147.6 414.3L154.3 412.9L153.2 411.2L150.4 411.0L146.0 412.3L142.4 412.3L141.9 409.1L143.5 407.2L142.2 406.0L142.0 403.9L150.0 401.0L153.3 401.4L157.0 398.9L157.5 400.7L159.2 402.0L158.8 406.9L160.7 408.5L165.4 409.8L167.5 409.3L172.1 411.1L173.5 413.8L176.0 415.2L180.2 416.0L197.6 416.2L199.1 419.3L199.3 423.9L204.6 424.0L206.9 422.1L207.2 421.0L210.5 421.1L211.4 418.6L210.4 417.3L214.4 413.8L214.3 411.3L216.1 409.9L217.3 410.3L219.6 407.8L219.8 408.2L221.2 407.3L224.8 407.9L226.5 406.1L231.4 405.7L232.9 407.5L233.7 412.1L230.8 411.4L231.6 416.1L239.2 415.2L241.2 415.9L244.8 414.9L248.4 412.9L249.5 411.5L252.4 410.5L254.3 411.0L254.6 412.9L256.5 412.1L258.3 413.2L266.0 412.8L266.4 410.5L267.9 409.7L270.4 410.1L273.9 409.0L274.2 407.1L278.0 408.3L280.6 408.3L281.6 411.8L286.5 410.1L290.9 412.2L294.5 411.4L295.8 409.9L299.4 409.7L302.0 412.2L303.2 414.4L305.8 415.6L308.1 417.6L309.0 417.2L307.9 420.0L304.2 421.4L303.6 423.4L304.2 427.9L306.2 427.7L307.0 434.6L305.6 437.0L307.9 436.9L307.3 442.0L308.2 443.5L302.5 445.9L303.4 448.7L305.2 448.5L306.2 449.7L305.8 453.9L304.3 456.8L306.2 457.1L306.6 458.6L309.3 460.1L310.3 462.4L314.7 464.9L313.7 469.0L311.2 471.0L307.8 470.4L307.0 468.1L304.7 469.7L302.5 473.7L301.0 474.8L300.9 476.7L299.5 480.1L301.4 482.6L299.6 484.8L299.6 486.0L295.8 487.0L293.3 484.6L290.8 483.2L291.9 482.1L291.4 477.7L289.4 475.9L291.1 474.4L292.3 468.1L291.5 466.2L289.6 465.2L288.2 463.4L286.6 462.6L280.0 465.4L277.4 463.4L274.6 463.0L273.1 466.5L270.8 464.6L266.9 464.1L267.4 461.3L265.1 460.5L264.6 458.5L258.1 457.1L254.6 457.2L253.4 455.4L251.5 454.6L253.0 458.0L252.4 459.8L250.8 460.4L251.5 462.6L251.6 465.9L249.2 467.3L248.3 472.3L245.1 471.5L242.7 469.6L240.7 470.6L240.6 473.8L239.1 476.7L240.2 481.0L242.8 482.7L240.2 483.7L238.9 486.9L237.5 487.4L237.7 490.3L234.2 490.4L233.9 493.1L232.5 495.1L233.1 497.2L231.0 498.0L229.6 496.9L229.7 494.6L227.4 493.3L226.1 493.8L225.7 495.1L221.2 500.9L218.5 499.9L217.7 501.8L218.5 503.8L217.4 504.6L217.7 507.1L214.2 508.1L213.3 507.5L214.6 509.4L212.7 510.6L212.0 513.2L211.3 512.3L208.0 511.2L207.2 513.8L203.4 515.5L203.3 518.8L204.3 519.7L204.6 522.9L200.9 521.6L193.6 522.7L192.7 520.6L190.7 521.4L186.3 518.6L184.8 521.1L185.6 523.1L186.8 524.0L186.1 526.6L187.3 528.1L187.1 531.7L183.8 532.0L182.2 531.5L177.7 532.3L177.3 534.8L175.3 535.3L173.0 532.4L168.5 534.8L168.9 537.1L167.2 537.1L163.4 538.7L161.8 542.1L160.4 542.9L159.7 540.8Z" fill="rgb(214,152,149)" stroke="#B9C2B4" stroke-width="1.1"/><path d="M333.4 495.7L330.2 498.6L329.1 505.5L327.0 507.7L327.0 509.7L323.8 509.8L321.3 508.6L319.4 510.2L317.7 510.3L316.6 503.6L316.8 500.5L314.0 501.2L313.7 499.5L311.3 500.4L311.1 496.8L310.1 493.3L308.4 491.1L304.0 488.3L302.0 488.8L299.6 486.0L299.6 484.8L301.4 482.6L299.5 480.1L300.9 476.7L301.0 474.8L302.5 473.7L304.7 469.7L307.0 468.1L307.8 470.4L311.2 471.0L313.7 469.0L314.7 464.9L310.3 462.4L309.3 460.1L306.6 458.6L306.2 457.1L304.3 456.8L305.8 453.9L306.2 449.7L305.2 448.5L303.4 448.7L302.5 445.9L308.2 443.5L307.3 442.0L307.9 436.9L305.6 437.0L307.0 434.6L306.2 427.7L304.2 427.9L303.6 423.4L304.2 421.4L307.9 420.0L310.9 413.5L310.3 408.6L311.3 406.0L312.8 406.0L313.5 404.0L313.2 402.4L315.0 396.8L317.4 398.1L318.4 393.4L320.2 392.0L320.0 388.2L322.0 386.8L323.4 387.6L325.3 385.9L328.9 386.8L332.5 385.6L333.1 383.5L335.1 382.1L336.7 379.6L336.2 376.7L338.3 376.3L340.5 373.8L340.3 371.3L344.7 370.7L346.6 365.1L344.2 362.9L341.3 362.5L339.7 359.4L337.3 359.9L335.8 359.0L332.2 359.9L332.3 356.0L334.3 354.4L332.2 351.4L332.0 350.1L333.6 349.1L335.0 351.3L337.1 352.2L339.8 350.5L341.9 350.7L343.7 351.9L346.8 351.0L348.1 351.8L353.8 352.8L357.2 351.4L358.6 349.2L361.5 348.1L364.8 350.5L368.3 350.5L371.2 349.2L374.1 344.4L376.7 344.9L380.0 350.7L383.3 351.8L385.0 357.4L389.0 358.4L390.9 356.7L390.9 360.1L389.6 363.3L392.3 364.6L391.4 368.9L392.1 370.4L394.9 373.9L399.6 374.0L400.2 375.3L398.4 377.3L396.3 381.5L394.2 383.0L392.5 382.9L390.8 384.6L391.7 387.4L390.8 389.9L387.2 390.7L381.4 394.3L379.2 398.5L379.3 400.6L380.5 404.3L377.4 407.6L378.0 409.1L375.5 409.7L374.3 412.8L375.8 415.3L375.7 417.0L372.7 416.1L370.8 422.3L368.0 423.0L365.3 421.4L357.3 421.9L357.3 423.7L355.4 427.4L353.6 428.4L352.9 430.6L350.0 429.3L350.9 435.7L349.8 437.5L352.4 440.9L351.5 443.3L352.0 446.9L351.1 448.5L351.4 450.8L359.2 452.6L358.7 456.7L356.2 458.2L354.7 455.5L352.6 454.6L350.1 456.6L348.2 452.9L346.2 452.7L343.4 450.8L342.1 451.0L340.4 449.5L338.7 450.9L337.9 453.6L338.5 454.9L340.9 456.0L341.3 457.5L343.3 457.8L342.4 465.2L344.1 465.0L344.8 467.3L346.3 467.3L345.6 473.3L346.7 475.4L347.7 480.7L346.0 481.1L345.6 484.1L343.9 485.5L339.3 487.5L339.5 489.9L336.1 493.9L335.6 495.6Z" fill="rgb(233,200,198)" stroke="#B9C2B4" stroke-width="1.1"/><path d="M69.0 434.1L59.7 430.0L51.0 423.0L41.7 411.9L33.5 404.2L34.1 402.6L33.0 403.9L29.7 400.8L23.6 393.6L22.9 391.5L24.5 388.1L28.4 390.5L28.8 394.1L32.7 391.5L36.4 390.8L37.6 389.8L39.6 389.9L45.5 387.5L48.2 385.4L51.9 385.2L54.3 382.3L54.1 380.8L55.9 379.6L58.5 375.9L59.8 377.5L62.5 372.6L65.6 370.3L66.4 368.4L61.1 368.8L59.2 367.7L56.4 367.7L52.8 371.6L50.8 375.5L47.0 376.1L40.2 378.8L34.6 378.4L27.6 376.7L15.4 368.9L13.0 366.0L13.4 364.1L9.8 362.4L10.1 360.6L8.0 360.4L7.6 358.2L3.5 357.6L2.5 355.6L4.2 355.1L5.1 350.4L8.3 348.0L18.4 347.9L18.7 339.3L20.7 340.8L23.1 339.1L24.5 341.2L26.7 339.9L29.1 340.9L32.1 339.7L36.4 340.1L38.9 339.4L42.3 342.6L49.4 342.6L51.5 339.4L62.8 336.0L62.8 340.5L65.1 341.3L68.5 341.3L72.9 337.5L74.4 337.7L75.7 335.6L73.2 335.4L72.9 331.4L75.9 329.3L80.2 330.9L82.4 330.6L84.9 329.2L88.1 329.3L89.2 330.3L99.0 328.4L101.7 330.8L105.8 330.5L106.2 332.3L109.8 336.1L110.3 333.9L114.3 334.9L115.4 337.4L121.0 337.6L122.1 334.5L124.2 334.0L123.9 336.7L125.7 337.8L123.7 342.0L125.1 343.8L127.3 345.1L128.0 347.1L129.8 345.7L131.9 346.0L132.2 349.1L131.3 349.6L131.0 352.0L133.6 354.9L134.8 357.4L136.0 356.2L138.0 357.1L137.3 361.6L140.5 361.4L142.3 362.2L143.8 364.6L145.4 363.4L146.0 364.5L149.8 366.4L149.5 368.8L152.5 368.6L156.0 376.1L157.7 375.8L157.8 378.2L156.3 380.5L155.7 383.0L152.9 382.8L150.1 386.0L147.9 385.2L149.4 388.7L151.7 388.1L151.1 391.3L148.1 390.3L147.8 391.9L149.4 394.1L149.5 397.1L148.8 399.3L150.0 401.0L142.0 403.9L142.2 406.0L143.5 407.2L141.9 409.1L142.4 412.3L146.0 412.3L150.4 411.0L153.2 411.2L154.3 412.9L147.6 414.3L145.4 415.6L145.0 418.1L142.1 418.9L141.9 421.4L138.3 421.9L141.7 425.8L142.7 426.0L143.7 427.7L145.0 430.2L144.4 433.2L143.4 433.1L142.5 436.0L140.2 437.4L138.0 437.4L137.0 435.8L133.6 433.4L132.0 435.9L133.6 436.9L133.5 439.2L131.9 442.1L132.2 446.9L129.4 446.8L128.1 449.1L127.2 449.1L125.3 447.1L126.1 444.7L123.1 443.7L120.4 444.5L121.1 446.8L118.9 446.3L116.5 448.8L115.7 445.9L116.6 443.4L117.9 442.6L119.3 440.1L119.7 437.1L118.5 432.6L115.2 424.7L116.0 424.4L112.8 423.4L113.2 420.4L112.2 417.7L113.6 416.9L114.5 413.9L115.6 413.5L114.9 412.1L112.5 410.7L114.7 409.0L110.9 406.7L112.8 404.7L110.1 401.2L111.5 394.9L113.5 394.0L116.0 395.1L118.8 394.1L120.7 392.0L113.7 392.4L110.2 391.2L108.9 392.9L106.8 391.4L105.9 395.0L102.6 402.6L103.5 404.3L102.4 406.3L105.2 409.6L103.4 414.0L100.3 418.1L100.4 420.8L89.8 426.1L85.7 427.5L83.9 429.4L81.1 430.0L74.4 433.1L71.3 432.8Z" fill="rgb(194,214,197)" stroke="#B9C2B4" stroke-width="1.1"/><path d="M350.3 500.3L349.5 503.7L347.8 505.1L345.8 503.5L342.5 503.0L341.2 504.5L337.1 506.0L332.3 509.5L327.0 509.7L327.0 507.7L329.1 505.5L330.2 498.6L333.4 495.7L335.6 495.6L336.1 493.9L339.5 489.9L339.3 487.5L343.9 485.5L345.6 484.1L346.0 481.1L347.7 480.7L346.7 475.4L345.6 473.3L346.3 467.3L344.8 467.3L344.1 465.0L342.4 465.2L343.3 457.8L341.3 457.5L340.9 456.0L338.5 454.9L337.9 453.6L338.7 450.9L340.4 449.5L342.1 451.0L343.4 450.8L346.2 452.7L348.2 452.9L350.1 456.6L352.6 454.6L354.7 455.5L356.2 458.2L358.7 456.7L359.2 452.6L351.4 450.8L351.1 448.5L352.0 446.9L351.5 443.3L352.4 440.9L349.8 437.5L350.9 435.7L350.0 429.3L352.9 430.6L353.6 428.4L355.4 427.4L357.3 423.7L357.3 421.9L365.3 421.4L368.0 423.0L370.8 422.3L372.7 416.1L375.7 417.0L375.8 415.3L374.3 412.8L375.5 409.7L378.0 409.1L377.4 407.6L380.5 404.3L379.3 400.6L379.2 398.5L381.4 394.3L387.2 390.7L390.8 389.9L391.7 387.4L390.8 385.8L393.2 387.2L395.3 389.8L397.6 390.7L401.0 390.4L403.6 388.5L408.8 388.7L410.3 387.8L413.9 388.0L416.6 386.8L416.8 392.9L415.6 396.5L419.3 397.8L420.7 399.4L421.6 397.5L424.6 395.4L431.6 398.2L433.2 397.7L434.1 400.1L436.8 400.1L439.5 396.7L440.1 394.7L438.7 393.2L440.0 390.9L439.8 388.5L438.4 386.9L441.0 385.1L442.2 386.9L446.2 387.9L448.1 390.5L449.8 391.4L451.4 390.6L457.1 394.0L459.8 397.1L462.9 397.5L464.4 398.7L463.8 402.0L466.2 403.3L466.4 401.7L469.7 400.6L469.8 403.5L470.6 404.9L474.5 405.8L475.6 409.8L473.7 411.7L469.1 411.9L467.3 412.6L462.5 416.6L460.3 420.4L460.1 423.5L463.2 429.7L462.9 431.5L460.4 431.7L459.0 433.0L460.3 431.9L464.3 432.0L465.1 433.5L458.6 438.2L457.3 440.1L458.3 443.5L452.3 447.5L448.3 452.8L444.9 454.9L431.5 459.0L423.5 463.1L414.5 470.3L410.3 474.5L409.2 476.6L407.6 475.5L405.7 476.3L404.9 478.0L403.1 477.3L398.3 484.1L396.0 483.9L392.7 484.9L391.4 483.4L387.8 483.4L385.5 478.1L384.3 478.8L384.6 480.9L382.3 476.0L380.9 476.0L377.8 477.7L377.3 479.7L374.6 478.1L373.9 479.3L376.2 481.9L371.1 485.1L369.4 484.2L366.1 488.9L367.2 490.5L366.6 492.9L368.0 494.3L365.3 495.4L363.5 494.8L361.4 493.0L360.6 495.9L356.0 497.6L356.5 495.2L353.5 491.0L350.5 493.8L351.0 495.2L349.4 500.0Z" fill="rgb(214,152,148)" stroke="#B9C2B4" stroke-width="1.1"/><path d="M272.4 635.8L268.3 634.1L265.8 633.8L262.4 634.9L259.2 636.6L258.5 642.1L254.1 646.2L251.4 645.2L249.7 642.7L250.2 640.0L251.7 640.1L252.7 637.9L255.5 637.0L258.4 629.1L254.9 628.2L253.0 626.8L253.9 620.9L248.9 621.4L249.0 619.8L247.0 617.5L246.9 613.7L244.1 613.4L243.3 611.1L239.5 612.3L238.7 614.8L230.8 618.4L231.1 616.4L230.2 614.2L227.6 614.4L224.1 613.5L223.5 615.2L221.2 616.8L219.1 614.6L220.7 611.8L218.0 609.3L218.4 607.6L217.1 605.6L219.7 604.8L220.3 608.4L223.9 609.7L227.5 609.3L229.4 612.5L230.3 611.4L229.2 609.6L229.3 605.5L232.0 605.9L231.4 602.4L229.6 601.2L228.6 602.8L223.0 601.2L222.5 604.1L219.8 603.9L216.8 600.9L217.2 597.2L214.9 596.1L213.9 594.2L214.2 592.2L215.7 589.3L216.4 584.6L213.8 584.1L214.8 581.2L219.3 583.4L222.4 582.9L223.5 580.1L222.7 577.8L223.4 576.1L221.2 575.1L220.5 572.3L220.4 567.1L221.7 566.4L220.3 561.8L221.4 559.8L225.7 558.4L235.8 560.5L239.3 560.8L241.3 560.0L246.1 561.6L248.3 561.2L250.3 557.2L254.1 555.5L257.5 556.3L258.7 555.3L262.1 557.2L266.6 554.2L266.1 552.6L269.2 551.1L272.3 552.0L273.7 551.5L273.8 544.0L274.8 542.6L278.7 542.2L279.4 541.2L287.8 538.4L289.9 539.1L291.6 540.8L294.2 537.9L294.7 536.0L293.8 533.3L294.2 531.9L297.5 530.6L300.4 531.9L300.7 534.4L306.8 537.3L306.6 535.6L307.6 533.3L305.9 532.2L301.7 531.8L305.2 529.4L307.0 527.2L310.0 529.0L313.5 530.1L314.3 529.3L314.4 526.9L315.9 525.4L317.2 526.1L321.5 525.1L321.9 522.6L324.0 522.8L324.8 520.4L317.8 517.5L315.1 514.4L314.5 511.8L316.6 510.7L318.7 511.9L319.4 510.2L321.3 508.6L323.8 509.8L332.3 509.5L337.1 506.0L341.2 504.5L342.5 503.0L345.8 503.5L347.8 505.1L349.5 503.7L350.3 500.3L349.4 500.0L351.0 495.2L350.5 493.8L353.5 491.0L356.5 495.2L356.0 497.6L360.6 495.9L361.4 493.0L363.5 494.8L365.3 495.4L368.0 494.3L366.6 492.9L367.2 490.5L366.1 488.9L369.4 484.2L371.1 485.1L376.2 481.9L373.9 479.3L374.6 478.1L377.3 479.7L377.8 477.7L380.9 476.0L382.3 476.0L384.6 480.9L384.3 478.8L385.5 478.1L387.8 483.4L391.4 483.4L392.7 484.9L396.0 483.9L398.3 484.1L403.1 477.3L404.9 478.0L405.7 476.3L407.6 475.5L409.2 476.6L399.2 490.3L394.1 495.1L393.6 496.7L382.3 502.8L376.4 508.7L374.6 512.1L370.0 516.5L366.6 517.8L365.9 518.7L354.9 524.6L349.5 529.7L347.8 532.9L347.8 534.4L350.5 535.0L349.4 542.8L347.4 543.2L340.6 547.0L334.7 549.3L330.8 548.3L326.9 548.5L323.8 550.2L322.5 552.0L320.9 558.1L317.6 561.4L317.5 563.9L315.8 564.9L313.2 565.2L311.8 561.0L309.5 560.5L306.0 561.4L300.6 564.8L299.0 567.1L297.9 571.3L295.9 574.1L293.9 583.5L295.5 590.6L297.7 594.7L297.0 600.8L296.1 604.1L296.4 609.0L299.1 615.8L298.6 619.1L299.4 621.5L298.1 623.5L294.8 623.5L293.8 622.2L291.6 626.8L288.2 628.0L287.9 630.0L285.6 630.5L285.1 628.6L281.5 629.1L281.6 627.4L278.4 627.6L279.2 631.4L275.4 633.1L274.1 632.2L274.2 633.6ZM348.2 539.2L348.3 538.5L346.2 538.1L346.6 538.5Z" fill="rgb(58,125,68)" stroke="#B9C2B4" stroke-width="1.1"/><path d="M193.7 664.2L192.1 663.9L190.2 661.2L186.4 658.7L184.9 658.5L182.7 655.0L181.0 655.0L181.2 652.9L179.8 651.8L181.0 649.5L177.7 648.9L173.6 644.8L170.4 643.2L167.6 642.7L166.5 640.4L162.8 619.7L160.7 612.0L159.0 610.4L156.1 599.1L153.0 593.6L152.9 591.1L149.3 589.4L148.5 586.4L151.4 585.7L153.7 582.7L153.1 581.2L154.2 578.9L152.8 577.4L154.4 576.3L154.3 574.1L153.2 573.5L152.6 570.8L153.2 570.0L152.2 566.2L149.3 566.6L149.4 564.8L151.6 563.2L152.3 564.2L154.9 563.7L155.9 560.0L157.8 556.4L155.5 555.4L158.2 553.6L158.2 550.9L155.6 550.6L154.2 548.9L154.5 545.5L154.1 542.9L159.7 540.8L160.4 542.9L161.8 542.1L163.4 538.7L167.2 537.1L168.9 537.1L168.5 534.8L173.0 532.4L175.3 535.3L177.3 534.8L177.7 532.3L182.2 531.5L183.8 532.0L187.1 531.7L187.3 528.1L186.1 526.6L186.8 524.0L185.6 523.1L184.8 521.1L186.3 518.6L190.7 521.4L192.7 520.6L193.6 522.7L200.9 521.6L204.6 522.9L204.3 519.7L203.3 518.8L203.4 515.5L207.2 513.8L208.0 511.2L211.3 512.3L212.0 513.2L212.7 510.6L214.6 509.4L213.3 507.5L214.2 508.1L217.7 507.1L217.4 504.6L218.5 503.8L217.7 501.8L218.5 499.9L221.2 500.9L225.7 495.1L226.1 493.8L227.4 493.3L229.7 494.6L229.6 496.9L231.0 498.0L233.1 497.2L234.3 497.6L233.4 499.7L234.3 502.4L233.0 503.4L235.7 505.7L234.0 507.3L232.8 510.7L230.7 512.9L230.5 515.8L236.4 517.7L232.2 519.9L231.5 521.8L228.9 525.3L228.6 527.0L231.0 528.3L231.8 530.1L230.9 534.2L231.3 536.7L230.0 538.5L230.7 541.3L229.8 543.9L225.6 545.0L226.7 546.7L229.8 547.8L231.6 547.3L234.2 548.5L231.9 551.6L232.2 559.4L225.7 558.4L221.4 559.8L220.3 561.8L221.7 566.4L220.4 567.1L220.5 572.3L221.2 575.1L223.4 576.1L222.7 577.8L223.5 580.1L222.4 582.9L219.3 583.4L214.8 581.2L213.8 584.1L216.4 584.6L215.7 589.3L214.2 592.2L213.9 594.2L214.9 596.1L217.2 597.2L216.8 600.9L219.8 603.9L222.5 604.1L223.0 601.2L228.6 602.8L229.6 601.2L231.4 602.4L232.0 605.9L229.3 605.5L229.2 609.6L230.3 611.4L229.4 612.5L227.5 609.3L223.9 609.7L220.3 608.4L219.7 604.8L217.1 605.6L218.4 607.6L218.0 609.3L220.7 611.8L219.1 614.6L221.2 616.8L223.5 615.2L224.1 613.5L227.6 614.4L230.2 614.2L231.1 616.4L230.8 618.4L238.7 614.8L239.5 612.3L243.3 611.1L244.1 613.4L246.9 613.7L247.0 617.5L249.0 619.8L248.9 621.4L253.9 620.9L253.0 626.8L254.9 628.2L258.4 629.1L255.5 637.0L252.7 637.9L251.7 640.1L250.2 640.0L249.7 642.7L247.3 642.1L245.5 640.2L243.6 640.7L242.3 639.2L239.9 639.9L239.0 643.0L237.7 645.0L234.3 645.1L234.0 649.1L235.2 649.8L234.7 653.0L233.1 655.0L231.2 656.3L232.0 657.4L234.6 657.2L237.9 658.6L238.6 659.7L237.0 661.7L236.2 663.9L231.7 664.1L230.1 668.8L226.8 667.7L222.4 668.6L220.0 667.5L217.4 668.0L215.6 671.7L215.9 673.3L208.9 672.6L207.7 670.4L205.5 671.3L205.3 669.0L203.0 669.2L200.3 666.3L198.0 666.4L198.0 663.2L195.3 664.5Z" fill="rgb(188,211,191)" stroke="#B9C2B4" stroke-width="1.1"/><path d="M153.2 573.5L154.3 574.1L154.4 576.3L152.8 577.4L154.2 578.9L153.1 581.2L153.7 582.7L151.4 585.7L148.5 586.4L146.0 582.3L143.6 574.4L144.8 572.4L140.7 570.8L138.8 564.6L145.0 564.3L146.2 567.7L152.2 566.2L153.2 570.0L152.6 570.8Z" fill="rgb(58,125,68)" stroke="#B9C2B4" stroke-width="1.1"/><path d="M217.2 708.6L219.2 709.5L221.9 707.0L224.1 705.9L226.7 709.1L226.1 714.5L224.9 718.5L225.7 720.5L223.7 725.4L226.2 726.5L227.4 725.7L229.5 727.7L226.5 733.7L226.2 737.5L223.3 741.3L224.4 743.5L225.9 744.7L223.8 748.3L226.2 752.6L226.1 754.5L222.1 760.2L218.7 756.8L211.9 747.4L208.6 744.1L206.9 738.3L203.1 728.8L202.1 720.8L199.3 710.5L200.5 710.2L199.2 710.4L197.7 705.2L193.1 694.4L191.0 685.7L187.9 677.8L185.9 676.4L184.4 670.5L180.3 666.4L179.5 666.3L177.0 662.4L175.7 662.5L167.6 642.7L170.4 643.2L173.6 644.8L177.7 648.9L181.0 649.5L179.8 651.8L181.2 652.9L181.0 655.0L182.7 655.0L184.9 658.5L186.4 658.7L190.2 661.2L192.1 663.9L195.3 664.5L198.0 663.2L198.0 666.4L200.3 666.3L203.0 669.2L205.3 669.0L205.5 671.3L204.5 673.1L201.0 675.1L206.5 678.7L208.6 679.5L208.0 681.8L206.0 683.7L210.6 683.8L212.5 682.6L212.2 684.6L213.7 686.9L211.3 690.6L215.5 692.4L217.4 694.7L215.7 699.6L215.2 704.1L215.6 706.3ZM184.1 669.5L184.0 670.0L184.4 670.0Z" fill="rgb(58,125,68)" stroke="#B9C2B4" stroke-width="1.1"/><path d="M226.7 546.7L225.6 545.0L229.8 543.9L230.7 541.3L230.0 538.5L231.3 536.7L230.9 534.2L231.8 530.1L231.0 528.3L228.6 527.0L228.9 525.3L231.5 521.8L232.2 519.9L236.4 517.7L230.5 515.8L230.7 512.9L232.8 510.7L234.0 507.3L235.7 505.7L233.0 503.4L234.3 502.4L233.4 499.7L234.3 497.6L233.1 497.2L232.5 495.1L233.9 493.1L234.2 490.4L237.7 490.3L237.5 487.4L238.9 486.9L240.2 483.7L242.8 482.7L240.2 481.0L239.1 476.7L240.6 473.8L240.7 470.6L242.7 469.6L245.1 471.5L248.3 472.3L249.2 467.3L251.6 465.9L251.5 462.6L250.8 460.4L252.4 459.8L253.0 458.0L251.5 454.6L253.4 455.4L254.6 457.2L258.1 457.1L264.6 458.5L265.1 460.5L267.4 461.3L266.9 464.1L270.8 464.6L273.1 466.5L274.6 463.0L277.4 463.4L280.0 465.4L286.6 462.6L291.5 466.2L292.3 468.1L291.1 474.4L289.4 475.9L291.4 477.7L291.9 482.1L290.8 483.2L293.3 484.6L295.8 487.0L299.6 486.0L302.0 488.8L304.0 488.3L308.4 491.1L310.1 493.3L311.1 496.8L311.3 500.4L313.7 499.5L314.0 501.2L316.8 500.5L316.6 503.6L317.7 510.3L319.4 510.2L318.7 511.9L316.6 510.7L314.5 511.8L315.1 514.4L317.8 517.5L324.8 520.4L324.0 522.8L321.9 522.6L321.5 525.1L317.2 526.1L315.9 525.4L314.4 526.9L314.3 529.3L313.5 530.1L310.0 529.0L307.0 527.2L305.2 529.4L301.7 531.8L305.9 532.2L307.6 533.3L306.6 535.6L306.8 537.3L300.7 534.4L300.4 531.9L297.5 530.6L294.2 531.9L293.8 533.3L294.7 536.0L294.2 537.9L291.6 540.8L289.9 539.1L287.8 538.4L279.4 541.2L278.7 542.2L274.8 542.6L273.8 544.0L273.7 551.5L272.3 552.0L269.2 551.1L266.1 552.6L266.6 554.2L262.1 557.2L258.7 555.3L257.5 556.3L254.1 555.5L250.3 557.2L248.3 561.2L246.1 561.6L241.3 560.0L239.3 560.8L235.8 560.5L232.2 559.4L231.9 551.6L234.2 548.5L231.6 547.3L229.8 547.8Z" fill="rgb(237,210,209)" stroke="#B9C2B4" stroke-width="1.1"/><path d="M492.7 396.9L489.7 399.2L487.1 404.1L483.0 407.6L480.2 408.9L475.6 409.8L474.5 405.8L470.6 404.9L469.8 403.5L469.7 400.6L466.4 401.7L466.2 403.3L463.8 402.0L464.4 398.7L462.9 397.5L459.8 397.1L457.1 394.0L459.7 391.1L460.0 389.2L458.0 388.5L458.9 386.9L458.0 384.5L455.4 384.5L455.0 382.4L449.5 378.9L450.0 375.3L451.6 373.6L445.2 373.5L440.4 369.6L436.5 369.0L434.9 366.3L436.5 364.2L435.9 362.1L436.5 360.7L440.3 360.3L441.3 358.5L443.2 358.7L443.6 361.1L446.9 362.6L448.2 359.4L451.2 356.7L456.7 355.0L458.9 355.0L459.5 353.3L458.9 351.5L461.7 350.2L465.8 352.0L466.9 351.0L469.4 350.9L470.9 349.7L469.4 346.4L471.9 346.2L474.5 347.6L479.1 342.8L479.3 340.4L481.0 340.3L483.3 337.0L483.1 331.8L485.4 332.2L485.9 328.1L484.2 327.5L485.5 324.6L487.2 322.9L487.0 321.5L483.1 318.5L482.7 314.2L481.1 314.0L482.3 313.8L483.7 314.5L484.4 313.0L482.9 311.9L482.5 309.9L484.9 307.7L487.2 306.6L489.8 308.1L488.7 305.1L489.4 302.4L487.3 301.7L485.5 298.0L483.9 297.4L483.8 296.2L484.5 293.5L487.5 290.7L489.9 289.9L491.7 287.9L495.0 285.8L494.0 282.5L490.8 280.1L492.1 277.8L492.7 274.2L491.1 269.5L487.9 265.4L489.1 262.4L490.5 264.7L491.9 265.3L495.0 264.7L498.5 266.3L501.1 263.6L502.7 263.3L509.3 265.4L509.3 269.1L510.6 268.4L514.7 271.1L514.7 272.4L515.7 273.3L518.8 273.3L521.7 272.0L523.6 273.5L525.9 273.1L531.2 276.1L533.3 276.2L533.8 278.4L533.1 284.4L531.6 285.2L529.6 288.8L530.3 290.0L528.0 288.5L527.4 290.5L528.4 292.8L525.8 294.4L521.1 294.2L518.1 291.2L516.3 290.8L514.9 284.2L512.1 282.7L510.3 284.5L512.2 285.3L510.7 287.1L506.7 285.9L498.4 279.7L497.9 277.6L496.3 281.4L500.0 282.4L500.7 284.9L497.9 285.8L496.7 288.7L492.5 290.6L490.4 296.3L490.6 299.0L491.6 299.9L494.7 300.2L499.2 303.4L499.0 305.2L503.9 308.2L508.0 307.0L508.6 311.2L512.2 313.6L510.3 316.1L498.8 315.5L499.2 318.7L497.8 321.6L494.9 323.7L493.7 321.9L491.6 323.1L492.4 324.5L489.8 326.9L488.8 328.9L491.4 333.7L496.3 335.5L497.5 336.7L501.8 339.0L504.8 338.6L506.2 340.4L506.3 343.2L505.2 344.6L506.3 346.2L506.0 349.4L502.9 350.7L501.9 354.7L502.6 357.2L505.8 359.9L506.8 361.7L505.5 367.3L507.9 366.7L511.1 368.0L509.1 374.2L511.8 377.5L510.4 379.8L511.6 381.5L510.7 382.6L512.5 388.4L512.4 392.1L514.1 394.2L514.2 401.0L512.7 402.3L510.9 401.2L509.0 401.7L506.8 400.9L506.8 399.3L503.6 400.9L501.1 403.6L499.0 401.9L497.7 402.4L496.9 404.8L494.7 406.9L495.5 408.4L494.5 411.4L493.3 405.4L491.7 400.9L493.2 399.0L493.5 397.0L492.6 394.8L490.1 392.8L488.1 393.3L488.5 394.4L491.5 394.8ZM507.1 403.2L507.9 408.4L506.3 408.6L505.0 406.2L505.6 402.2ZM491.2 408.3L488.9 407.9L490.7 403.9L492.2 404.4L492.3 406.6Z" fill="rgb(235,204,202)" stroke="#B9C2B4" stroke-width="1.1"/><path d="M123.1 443.7L126.1 444.7L125.3 447.1L127.2 449.1L125.4 450.0L121.2 448.9L120.4 444.5ZM119.3 440.1L117.9 442.6L118.0 440.4ZM71.3 432.8L73.2 432.8L72.7 433.8Z" fill="#E4E8E1" stroke="#B9C2B4" stroke-width="1.1"/><path d="M347.5 538.6L346.6 538.5L346.2 538.1L348.3 538.5L348.2 539.2ZM289.2 693.5L288.5 692.1L286.1 690.8L286.7 689.0L289.2 689.3ZM288.2 666.7L285.2 665.8L287.6 663.7L289.0 663.8ZM184.4 670.0L184.0 670.0L184.1 669.5Z" fill="rgb(194,103,98)" stroke="#B9C2B4" stroke-width="1.1"/><path d="M123.1 760.9L122.5 760.6L123.3 760.7Z" fill="#E4E8E1" stroke="#B9C2B4" stroke-width="1.1"/><path d="M602.2 267.4L599.5 269.3L596.7 269.3L590.5 271.1L588.5 271.0L588.3 268.0L586.6 266.5L586.4 264.0L587.5 261.0L587.1 257.7L586.1 255.3L584.3 256.1L577.3 255.5L575.1 252.9L575.0 251.6L576.6 249.7L576.7 247.1L581.5 246.9L582.9 249.2L585.4 248.0L587.1 248.3L589.6 246.2L592.0 245.6L593.3 247.7L599.5 246.6L603.7 242.6L601.9 240.2L602.6 238.6L605.3 236.6L607.6 236.5L610.8 233.9L615.6 232.9L614.6 230.5L617.0 228.7L618.5 225.1L622.2 223.9L625.4 224.7L633.7 223.2L634.5 219.8L638.4 216.8L639.1 214.6L641.7 211.8L643.4 211.6L645.1 209.7L648.2 209.6L648.7 208.2L651.2 207.0L655.9 210.8L665.2 212.8L665.6 214.3L670.1 214.7L672.1 210.1L673.3 209.9L680.5 205.4L682.4 205.6L685.6 203.5L687.7 206.1L689.3 209.5L693.0 209.0L691.8 211.2L688.7 212.1L687.1 214.3L689.5 217.2L691.8 214.9L694.0 214.7L696.1 216.5L696.5 218.8L698.2 221.0L697.7 223.1L694.9 223.9L695.4 225.3L691.4 228.5L692.5 229.2L691.1 231.9L695.8 231.1L697.5 229.9L699.6 229.8L702.4 232.4L705.3 231.9L707.7 233.8L710.0 232.4L712.0 234.2L713.2 234.2L716.8 236.2L715.8 237.9L715.8 240.4L717.3 241.8L717.0 244.3L714.0 244.5L711.6 246.8L708.6 248.5L705.4 252.1L704.4 251.6L706.2 254.8L705.4 256.3L711.8 264.5L709.3 265.8L707.4 264.2L704.4 263.2L705.0 261.4L702.8 259.1L698.2 258.6L695.8 260.4L690.9 260.5L685.6 262.4L683.9 263.5L682.1 266.9L678.6 267.8L677.2 271.0L675.7 270.7L673.8 273.1L671.1 273.0L669.4 276.2L666.4 277.4L664.7 276.6L663.9 272.3L664.6 270.2L663.8 267.3L665.3 267.4L668.0 265.3L668.2 265.7L669.9 264.7L670.8 261.9L672.0 261.3L674.4 262.1L677.1 261.2L679.9 261.1L682.4 260.0L683.8 258.5L681.9 256.7L680.5 256.8L680.3 253.9L678.0 251.9L677.9 248.9L682.7 243.0L679.0 242.7L673.8 243.1L671.5 245.1L668.3 246.2L666.5 245.4L662.3 246.8L655.4 249.1L645.9 253.6L640.4 251.6L639.8 252.3L641.1 254.6L634.4 259.6L629.8 264.3L630.4 266.4L626.4 269.0L610.7 270.5L607.4 268.2Z" fill="rgb(180,205,183)" stroke="#B9C2B4" stroke-width="1.1"/><path d="M598.8 342.4L596.4 343.0L596.1 340.5L593.0 340.7L591.1 339.6L592.1 337.7L591.0 333.7L592.0 329.3L593.0 327.7L591.5 323.5L593.0 323.0L595.2 324.7L598.3 324.0L596.1 320.0L597.5 318.0L600.9 317.8L602.0 316.2L603.9 315.4L605.1 313.4L601.7 309.4L599.7 308.6L601.9 305.8L600.0 306.3L598.1 304.6L596.6 301.9L591.3 302.0L589.5 303.1L589.5 299.3L590.7 297.0L589.8 295.3L592.4 292.8L590.0 292.5L589.0 293.3L582.5 293.4L581.5 291.4L579.0 293.6L579.0 295.4L575.5 293.6L572.2 298.7L569.5 298.7L566.8 301.8L564.9 298.4L561.5 299.1L562.0 297.5L560.1 295.9L554.5 295.7L552.4 296.6L547.5 294.8L541.5 296.0L539.9 295.6L534.5 301.7L537.4 304.8L534.0 306.4L533.8 308.3L533.3 308.6L534.1 304.6L532.7 301.5L533.1 297.6L534.2 295.9L529.6 288.8L531.6 285.2L533.1 284.4L533.8 278.4L533.5 275.2L538.1 275.3L541.7 274.2L542.6 271.9L545.2 271.8L547.1 270.7L550.3 273.0L554.5 274.3L562.7 274.0L563.7 272.9L569.6 274.0L571.3 272.4L573.5 273.7L576.6 272.9L578.5 273.1L583.2 270.4L585.4 271.9L587.1 272.3L588.5 271.0L590.5 271.1L596.7 269.3L599.5 269.3L602.2 267.4L607.4 268.2L610.7 270.5L626.4 269.0L630.4 266.4L629.8 264.3L634.4 259.6L641.1 254.6L639.8 252.3L640.4 251.6L645.9 253.6L655.4 249.1L662.3 246.8L666.5 245.4L668.3 246.2L671.5 245.1L673.8 243.1L682.7 243.0L677.9 248.9L678.0 251.9L680.3 253.9L680.5 256.8L681.9 256.7L683.8 258.5L682.4 260.0L679.9 261.1L677.1 261.2L674.4 262.1L672.0 261.3L670.8 261.9L669.9 264.7L668.2 265.7L668.0 265.3L665.3 267.4L663.8 267.3L661.5 269.2L658.5 270.5L657.1 269.6L652.5 274.8L648.9 275.4L644.4 278.4L644.4 280.5L642.2 282.4L641.5 279.7L639.1 282.5L638.6 285.3L637.1 286.1L634.6 290.0L633.5 295.3L634.1 296.7L631.7 298.6L629.1 298.5L629.1 295.3L626.8 297.0L627.3 298.4L623.4 301.6L622.7 303.1L620.6 304.2L618.2 306.5L621.3 309.4L621.6 312.8L619.5 314.5L618.6 317.6L616.2 321.5L616.2 323.1L614.4 326.1L612.8 325.8L612.3 332.1L611.4 332.8L610.4 336.3L607.6 336.8L605.3 336.1L604.4 333.6L602.6 337.8L601.0 338.4L600.7 340.4L599.2 340.6Z" fill="rgb(210,142,138)" stroke="#B9C2B4" stroke-width="1.1"/><path d="M620.6 304.2L622.7 303.1L623.4 301.6L627.3 298.4L626.8 297.0L629.1 295.3L629.1 298.5L631.7 298.6L634.1 296.7L633.5 295.3L634.6 290.0L637.1 286.1L638.6 285.3L639.1 282.5L641.5 279.7L642.2 282.4L644.4 280.5L644.4 278.4L648.9 275.4L652.5 274.8L657.1 269.6L658.5 270.5L661.5 269.2L663.8 267.3L664.6 270.2L663.9 272.3L664.7 276.6L660.5 282.7L662.0 285.4L661.8 291.7L663.5 292.6L662.1 294.9L659.3 297.4L660.0 301.3L657.4 303.2L654.3 307.8L651.0 309.1L648.1 307.5L648.0 305.6L646.5 304.9L644.7 306.7L642.4 307.6L639.7 307.8L639.2 306.4L637.2 307.1L634.7 305.9L628.8 306.6L629.8 308.6L626.4 312.6L625.0 315.6L622.4 314.4L621.6 312.8L621.3 309.4L618.2 306.5Z" fill="rgb(174,201,178)" stroke="#B9C2B4" stroke-width="1.1"/><path d="M567.5 315.6L563.3 315.5L557.8 316.6L556.0 316.0L553.9 316.6L549.4 316.4L547.8 317.0L545.0 315.8L539.7 314.9L536.3 312.9L532.9 313.0L532.4 310.6L533.8 308.3L534.0 306.4L537.4 304.8L534.5 301.7L539.9 295.6L541.5 296.0L547.5 294.8L552.4 296.6L554.5 295.7L560.1 295.9L562.0 297.5L561.5 299.1L564.9 298.4L566.8 301.8L569.5 298.7L572.2 298.7L575.5 293.6L579.0 295.4L579.0 293.6L581.5 291.4L582.5 293.4L589.0 293.3L590.0 292.5L592.4 292.8L589.8 295.3L590.7 297.0L589.5 299.3L589.5 303.1L591.3 302.0L596.6 301.9L598.1 304.6L600.0 306.3L601.9 305.8L599.7 308.6L601.7 309.4L605.1 313.4L603.9 315.4L602.0 316.2L600.9 317.8L597.5 318.0L596.1 320.0L587.7 316.0L579.6 316.3L577.0 317.5L576.1 316.2L573.4 317.3L570.6 316.2L570.0 314.7Z" fill="rgb(193,98,93)" stroke="#B9C2B4" stroke-width="1.1"/><path d="M622.5 348.6L620.3 345.2L619.4 344.8L616.3 346.6L609.6 344.1L610.7 341.0L610.4 336.3L611.4 332.8L612.3 332.1L612.8 325.8L614.4 326.1L616.2 323.1L616.2 321.5L618.6 317.6L619.5 314.5L621.6 312.8L622.4 314.4L625.0 315.6L626.4 312.6L629.8 308.6L628.8 306.6L634.7 305.9L637.2 307.1L639.2 306.4L639.7 307.8L644.7 306.7L646.5 304.9L648.0 305.6L648.1 307.5L651.0 309.1L648.6 315.2L650.5 317.8L652.5 317.8L652.7 319.8L651.3 323.7L650.0 325.0L649.9 327.2L647.9 328.4L647.6 330.2L643.7 334.1L644.5 335.6L641.7 341.0L638.4 351.1L635.0 349.0L632.0 348.3L629.9 349.0L628.2 347.0L625.4 346.8Z" fill="rgb(210,143,139)" stroke="#B9C2B4" stroke-width="1.1"/><path d="M579.9 366.4L581.3 369.6L581.0 371.8L578.9 373.7L575.4 374.3L574.6 373.4L573.8 368.6L572.4 366.5L569.2 366.1L567.6 360.6L565.3 357.8L565.2 353.9L566.9 354.1L567.4 351.6L566.7 350.3L568.7 347.2L570.5 347.1L572.8 345.5L576.7 344.4L577.4 342.2L579.8 343.4L579.6 340.7L582.3 342.3L583.9 344.2L584.4 340.2L583.9 338.2L585.1 337.0L587.5 337.2L589.2 335.9L589.6 333.3L591.0 333.7L592.1 337.7L591.1 339.6L593.0 340.7L593.8 342.3L593.4 345.7L593.7 349.4L592.0 352.0L592.2 354.3L590.1 354.8L588.7 354.1L587.2 356.5L584.2 355.3L585.1 360.8L584.4 362.2L582.5 361.7L581.0 359.9L581.8 363.7Z" fill="rgb(59,126,69)" stroke="#B9C2B4" stroke-width="1.1"/><path d="M629.7 800.3L627.7 794.3L626.4 793.5L625.9 790.8L626.6 789.1L630.6 787.8L631.4 788.7L632.5 795.5L631.6 799.6ZM625.0 785.9L627.3 782.4L628.3 784.2L627.6 785.9L625.7 787.7ZM603.3 654.8L602.8 654.0L603.9 643.6L603.6 640.7L605.1 640.0L605.0 635.8L605.8 633.4L606.3 626.1L607.0 623.9L608.5 623.2L609.9 621.3L611.2 622.5L610.9 627.3L611.7 629.2L610.9 631.7L611.0 634.2L609.2 635.9L608.0 634.9L606.7 638.9L608.3 639.4L609.4 643.2L609.1 646.2L609.5 648.4L607.1 653.9L606.0 654.7L605.5 654.3ZM605.5 654.4L606.1 654.7L607.0 654.7L606.6 658.5L604.5 657.8L603.8 656.2ZM605.1 735.3L605.9 737.8L603.5 738.2L603.3 735.8ZM603.0 663.3L605.1 665.7L604.2 670.5L601.9 671.8L604.1 672.9L602.0 675.7L599.2 670.0L598.8 665.0L600.4 666.6L601.0 660.0L601.9 657.0L604.2 658.0L603.7 660.4L604.8 661.4ZM601.4 675.5L602.6 679.1L600.4 679.8L600.1 678.4ZM596.3 700.8L595.1 697.6L595.0 694.7L598.5 691.6L600.1 694.5L600.3 697.3L598.7 701.6Z" fill="rgb(58,125,68)" stroke="#B9C2B4" stroke-width="1.1"/><path d="M262.4 331.3L265.6 330.3L267.3 332.7L266.4 335.0L268.1 335.5L268.3 336.1L267.8 338.0L263.7 342.4L261.2 341.1L258.4 337.8L256.3 336.8L253.6 340.2L252.1 338.5L253.1 337.3L250.6 335.3L250.8 329.7L248.3 324.1L252.5 320.5L252.3 318.6L255.0 317.6L252.5 312.2L252.4 309.4L252.7 308.9L253.7 309.1L255.1 305.8L260.1 306.1L261.6 304.9L263.9 304.5L262.7 301.9L265.7 296.8L267.0 295.8L267.2 293.8L268.8 292.3L268.3 289.3L271.8 285.6L271.8 282.9L268.2 279.3L268.6 276.9L265.4 276.2L263.1 274.3L257.4 274.4L253.7 273.0L252.8 271.7L249.5 272.6L250.7 270.3L247.7 269.6L246.8 271.0L243.7 271.1L238.2 270.0L237.3 271.5L232.5 273.0L230.8 275.0L229.4 272.7L231.6 270.8L235.8 269.0L233.1 265.3L235.7 263.7L235.4 261.9L230.3 256.2L228.0 254.4L228.3 251.1L226.6 247.2L228.1 245.9L229.9 245.7L232.6 243.9L232.9 242.2L231.3 239.7L232.0 232.2L226.9 227.0L228.0 225.9L226.9 223.3L224.7 221.1L225.3 217.8L223.7 214.8L223.1 211.2L223.4 207.8L222.8 206.4L222.2 199.0L223.4 197.5L222.6 195.8L223.9 194.5L225.2 190.9L233.9 181.2L233.7 178.8L235.7 178.8L237.3 180.7L243.1 183.0L240.6 186.3L239.2 186.8L237.1 192.3L239.7 197.9L242.3 196.9L244.6 200.3L247.3 198.5L249.0 196.2L252.3 194.7L256.5 196.6L257.1 198.8L259.1 200.9L263.6 203.4L266.7 204.1L262.6 208.7L265.4 210.2L266.7 212.5L269.3 211.2L272.2 212.6L272.0 213.8L274.8 215.8L278.4 216.9L278.8 218.3L282.7 219.7L288.5 218.6L291.8 222.9L293.6 222.2L294.5 219.9L295.8 220.2L299.7 223.2L300.5 225.4L304.1 225.5L306.4 223.8L309.2 225.0L310.3 227.0L318.6 231.3L322.5 232.5L323.0 234.3L325.1 236.7L327.7 237.4L329.0 239.7L338.9 245.7L340.7 243.9L343.4 243.9L344.7 245.4L346.8 246.0L352.7 250.4L357.9 249.2L358.9 249.7L360.1 252.8L359.6 255.4L364.4 255.1L366.9 256.4L370.7 256.3L373.2 259.4L374.5 259.4L376.1 257.3L375.8 255.6L381.1 255.9L386.4 258.5L390.3 263.6L389.6 266.0L391.7 267.1L392.0 271.2L396.8 273.4L398.6 276.5L400.7 277.9L397.4 278.7L393.3 277.9L391.8 280.0L388.4 281.3L388.3 282.7L394.3 284.6L394.8 287.6L392.6 288.8L391.9 291.9L397.7 295.9L399.2 295.6L405.8 300.0L405.2 301.5L404.1 302.9L398.7 301.3L398.3 303.2L395.5 303.2L393.9 301.6L392.3 302.5L392.5 304.1L388.8 306.1L386.8 309.4L385.1 310.3L384.2 310.0L381.9 311.9L379.2 312.7L374.6 316.0L374.7 320.6L375.8 326.6L378.0 327.8L379.0 330.2L378.9 332.6L375.9 334.0L375.4 338.9L376.1 340.1L374.1 344.4L371.2 349.2L368.3 350.5L364.8 350.5L361.5 348.1L357.9 343.7L359.9 342.8L360.5 337.4L359.1 337.1L359.9 334.0L361.2 332.0L360.6 330.2L359.0 330.4L358.1 328.8L351.9 330.0L351.9 331.5L349.0 331.2L347.0 326.2L340.3 324.9L339.1 321.1L336.6 320.7L333.6 319.2L332.6 316.6L330.5 315.9L329.5 316.9L326.9 317.3L324.1 316.4L323.7 319.4L321.2 323.1L320.2 323.3L318.1 322.0L316.0 321.7L313.9 322.7L313.2 319.9L314.3 319.1L313.5 315.9L310.6 317.7L310.3 319.1L307.3 318.4L305.1 319.7L304.5 321.4L302.7 319.0L301.2 320.5L299.3 320.2L303.4 316.2L302.8 314.4L300.5 313.3L300.6 310.6L298.3 310.4L293.7 311.8L289.4 315.7L289.0 318.2L286.7 317.1L284.9 317.6L282.4 316.3L280.5 318.7L278.4 318.0L278.0 316.3L279.1 314.1L277.1 312.1L275.3 312.3L274.9 313.6L276.4 316.9L274.5 317.8L271.7 317.9L270.0 315.0L266.8 315.4L265.5 316.7L265.3 315.9L267.5 311.7L265.5 310.7L267.1 307.9L265.7 307.3L261.9 308.8L263.0 311.5L260.2 310.7L256.6 313.5L259.7 318.9L259.5 321.9L260.6 323.5L262.9 324.5L263.1 328.6Z" fill="rgb(210,142,139)" stroke="#B9C2B4" stroke-width="1.1"/><path d="M158.8 371.2L155.8 370.5L154.2 371.8L152.5 368.6L149.5 368.8L149.8 366.4L146.0 364.5L145.4 363.4L143.8 364.6L142.3 362.2L140.5 361.4L137.3 361.6L138.0 357.1L136.0 356.2L134.8 357.4L133.6 354.9L131.0 352.0L131.3 349.6L132.2 349.1L131.9 346.0L129.8 345.7L128.0 347.1L127.3 345.1L125.1 343.8L123.7 342.0L125.7 337.8L123.9 336.7L124.2 334.0L122.1 334.5L121.0 337.6L115.4 337.4L114.3 334.9L110.3 333.9L109.8 336.1L106.2 332.3L105.8 330.5L101.7 330.8L99.0 328.4L89.2 330.3L88.1 329.3L84.9 329.2L82.4 330.6L80.2 330.9L75.9 329.3L71.7 322.4L70.5 316.9L67.1 313.5L65.0 310.4L65.3 303.0L63.7 302.0L61.8 302.8L58.3 303.1L55.4 302.1L51.2 296.1L50.9 292.3L52.2 290.4L53.1 287.9L53.1 280.0L50.2 278.7L46.0 279.3L43.7 278.8L42.0 277.3L36.9 275.0L36.2 273.4L36.9 268.0L38.7 263.4L45.5 257.6L47.2 255.1L49.4 253.4L52.1 247.0L57.9 241.6L61.2 241.0L63.2 241.6L65.3 244.0L65.5 246.5L67.3 249.2L70.9 249.6L78.2 246.2L82.5 245.3L89.5 245.1L94.6 243.1L94.7 244.2L95.9 238.7L102.7 231.6L104.9 224.3L107.5 221.3L120.7 214.9L122.1 211.6L124.1 209.4L128.9 200.6L131.7 190.7L141.7 187.6L145.7 184.2L145.8 186.2L144.1 188.0L143.9 190.0L159.3 190.9L160.1 192.8L158.3 194.2L158.2 196.0L161.5 195.8L160.5 200.8L161.6 201.7L160.7 203.6L161.1 206.0L165.7 206.1L167.2 205.0L169.3 206.1L169.9 208.2L172.1 208.1L172.8 209.6L179.3 208.2L180.7 208.8L180.4 214.0L181.6 214.1L183.7 216.4L182.4 217.6L183.5 220.0L184.6 225.8L186.0 226.1L187.2 228.3L192.6 231.7L196.6 236.1L195.2 238.7L195.4 240.4L194.6 243.7L193.6 243.8L194.6 245.8L197.1 246.1L199.6 247.2L200.7 246.3L199.4 244.5L199.1 242.0L201.6 240.2L203.0 241.5L204.0 238.6L202.9 237.2L208.5 241.0L208.4 242.6L211.6 241.6L212.0 239.6L214.7 238.0L216.1 236.1L218.9 238.3L218.0 242.1L218.3 246.1L217.0 248.9L219.1 251.0L220.8 246.6L226.6 247.2L228.3 251.1L228.0 254.4L230.3 256.2L235.4 261.9L235.7 263.7L233.1 265.3L235.8 269.0L231.6 270.8L229.4 272.7L230.8 275.0L232.5 273.0L237.3 271.5L238.2 270.0L243.7 271.1L246.8 271.0L247.7 269.6L250.7 270.3L249.5 272.6L246.8 273.6L246.2 276.7L244.1 276.2L241.7 277.2L239.8 280.0L237.8 280.4L232.8 283.7L230.3 283.9L226.3 287.5L222.6 288.9L217.2 292.1L214.5 296.0L212.7 297.1L210.9 296.9L208.6 298.8L207.5 303.2L207.8 306.9L209.7 310.1L211.6 311.6L213.8 312.4L216.2 312.1L218.3 313.3L221.7 312.0L225.1 312.4L225.4 310.8L227.3 309.5L228.6 310.0L229.7 314.9L229.3 317.7L227.3 318.7L226.2 317.8L223.9 317.9L221.8 319.4L219.7 318.8L216.6 319.7L216.3 321.8L218.4 324.3L214.9 325.9L216.1 327.5L218.4 327.1L220.5 328.5L221.4 332.5L219.1 335.0L216.3 332.7L215.2 333.1L215.9 335.6L215.6 337.7L216.3 339.9L217.8 341.5L216.8 343.7L214.8 344.0L211.8 342.1L211.0 340.0L209.2 341.6L203.1 340.7L198.1 342.0L198.4 344.8L196.3 345.4L193.7 349.8L190.2 350.6L187.7 353.7L185.1 352.5L184.6 350.9L182.1 349.3L183.6 346.4L188.0 348.0L191.3 345.6L189.2 343.3L190.7 340.7L188.6 336.7L190.0 335.2L192.8 335.5L193.3 332.8L191.0 329.6L190.0 327.1L185.7 329.2L184.3 328.6L182.0 329.2L175.3 327.4L179.1 322.0L179.4 320.3L175.5 319.8L173.6 321.7L173.7 324.0L171.8 324.9L169.8 324.5L168.5 322.7L166.6 323.5L167.5 326.1L170.3 327.0L170.7 328.9L168.1 330.4L166.1 327.8L165.3 329.7L165.6 331.7L163.5 334.4L166.3 334.8L167.3 336.0L165.5 338.2L164.8 340.7L167.6 340.7L168.6 341.5L167.9 342.5L170.2 346.0L168.5 350.4L169.4 353.3L169.0 355.9L167.1 358.9L165.3 359.1L160.4 362.4L159.4 365.0L164.4 367.6Z" fill="rgb(201,219,203)" stroke="#B9C2B4" stroke-width="1.1"/><path d="M226.9 223.3L228.0 225.9L226.9 227.0L228.1 228.2L225.9 229.2L223.9 231.3L222.0 228.5L219.8 227.7L216.8 228.7L215.9 227.4L216.9 225.3L219.0 223.6L218.3 220.9L218.9 220.6L222.6 219.3L224.9 219.5L224.7 221.1Z" fill="rgb(188,87,82)" stroke="#B9C2B4" stroke-width="1.1"/><path d="M196.6 236.1L192.6 231.7L187.2 228.3L186.0 226.1L184.6 225.8L183.5 220.0L182.4 217.6L183.7 216.4L181.6 214.1L180.4 214.0L180.7 208.8L179.3 208.2L172.8 209.6L172.1 208.1L169.9 208.2L169.3 206.1L167.2 205.0L165.7 206.1L161.1 206.0L160.7 203.6L161.6 201.7L160.5 200.8L161.5 195.8L158.2 196.0L158.3 194.2L160.1 192.8L159.3 190.9L162.2 191.7L163.7 190.0L166.3 189.5L169.1 190.6L170.8 192.8L173.7 193.7L175.5 193.4L176.8 195.9L175.0 198.1L178.2 200.9L179.3 197.3L182.1 194.4L185.0 196.2L189.9 194.0L194.0 196.5L196.5 196.0L197.7 194.3L200.5 193.5L199.4 191.3L201.5 187.0L205.3 185.5L206.6 186.7L209.3 186.7L210.9 185.4L209.0 183.0L212.6 180.8L213.5 178.1L217.5 178.1L217.2 177.6L217.8 173.3L215.5 171.4L215.9 167.4L214.2 165.6L216.5 166.4L217.6 165.7L220.3 169.6L223.7 171.3L223.9 173.5L222.7 174.5L224.7 176.5L229.6 178.1L232.4 177.7L233.8 179.4L233.9 181.2L225.2 190.9L223.9 194.5L222.6 195.8L223.4 197.5L222.2 199.0L222.8 206.4L223.4 207.8L223.1 211.2L223.7 214.8L225.3 217.8L224.9 219.5L222.6 219.3L218.3 220.9L219.0 223.6L216.9 225.3L215.9 227.4L216.8 228.7L219.8 227.7L222.0 228.5L223.9 231.3L225.9 229.2L228.1 228.2L232.0 232.2L231.3 239.7L232.9 242.2L232.6 243.9L229.9 245.7L228.1 245.9L226.6 247.2L220.8 246.6L219.1 251.0L217.0 248.9L218.3 246.1L218.0 242.1L218.9 238.3L216.1 236.1L214.7 238.0L212.0 239.6L211.6 241.6L208.4 242.6L208.5 241.0L202.9 237.2L204.0 238.6L203.0 241.5L201.6 240.2L199.1 242.0L199.4 244.5L200.7 246.3L199.6 247.2L197.1 246.1L194.6 245.8L193.6 243.8L194.6 243.7L195.4 240.4L195.2 238.7Z" fill="rgb(211,144,141)" stroke="#B9C2B4" stroke-width="1.1"/><path d="M510.6 259.8L510.2 261.1L507.7 261.7L507.5 263.3L505.7 264.6L502.7 263.3L501.1 263.6L498.5 266.3L495.0 264.7L491.9 265.3L490.5 264.7L489.1 262.4L489.2 255.6L492.9 247.5L493.1 243.5L499.6 241.5L500.2 240.5L503.2 239.3L506.6 239.9L508.7 242.1L508.5 243.8L509.8 245.7L509.0 246.7L508.8 250.6L506.8 253.4L507.5 257.3Z" fill="rgb(58,125,68)" stroke="#B9C2B4" stroke-width="1.1"/><path d="M415.6 336.2L412.6 337.3L412.2 334.9L410.1 333.1L404.8 336.6L402.6 339.5L401.7 338.2L398.9 336.8L398.5 334.2L396.8 333.3L392.8 333.1L390.7 330.2L389.0 332.7L387.4 333.1L383.6 333.9L378.4 333.3L378.9 332.6L379.0 330.2L378.0 327.8L375.8 326.6L374.7 320.6L374.6 316.0L379.2 312.7L381.9 311.9L384.2 310.0L385.1 310.3L386.8 309.4L388.8 306.1L392.5 304.1L392.3 302.5L393.9 301.6L395.5 303.2L398.3 303.2L398.7 301.3L404.1 302.9L405.8 300.0L399.2 295.6L397.7 295.9L391.9 291.9L392.6 288.8L394.8 287.6L394.3 284.6L388.3 282.7L388.4 281.3L391.8 280.0L393.3 277.9L397.4 278.7L400.7 277.9L398.6 276.5L396.8 273.4L392.0 271.2L391.7 267.1L389.6 266.0L390.3 263.6L387.1 259.4L386.4 257.0L390.9 256.7L392.9 254.6L396.8 256.4L397.3 257.8L405.6 259.3L407.3 262.4L406.2 267.0L409.0 268.1L410.6 267.7L414.0 269.3L415.7 271.5L419.6 271.7L419.3 273.5L421.1 274.7L423.1 275.0L428.2 272.5L430.6 272.1L432.7 273.2L432.6 276.8L435.9 279.6L438.3 277.4L440.0 277.0L444.0 278.3L447.6 278.6L452.6 280.4L453.2 281.4L457.0 283.3L460.0 282.9L464.8 279.8L466.0 282.7L467.7 283.9L472.7 283.8L475.0 282.9L478.1 284.5L479.8 284.5L484.4 283.0L489.0 284.2L490.6 282.5L490.8 280.1L494.0 282.5L495.0 285.8L491.7 287.9L489.9 289.9L487.5 290.7L484.5 293.5L483.8 296.2L483.9 297.4L485.5 298.0L487.3 301.7L489.4 302.4L488.7 305.1L489.8 308.1L487.2 306.6L484.9 307.7L482.5 309.9L482.9 311.9L484.4 313.0L483.7 314.5L481.1 314.0L480.6 312.6L477.2 312.1L475.4 315.7L471.7 314.9L470.9 318.5L468.0 319.3L467.3 320.3L467.6 323.9L466.4 324.7L465.0 330.6L462.6 330.5L461.6 332.7L457.7 330.9L455.3 332.1L454.2 331.1L451.5 333.7L450.4 337.3L447.9 335.3L446.1 334.8L446.7 332.3L442.6 331.2L442.4 328.7L440.7 326.6L437.7 327.7L432.9 325.6L431.2 329.7L431.4 331.6L428.2 333.1L424.0 332.5L423.0 333.7L422.0 333.4L417.1 337.4Z" fill="rgb(188,87,82)" stroke="#B9C2B4" stroke-width="1.1"/><path d="M440.1 394.7L439.5 396.7L436.8 400.1L434.1 400.1L433.2 397.7L431.6 398.2L424.6 395.4L421.6 397.5L420.7 399.4L419.3 397.8L415.6 396.5L416.8 392.9L416.6 386.8L413.9 388.0L410.3 387.8L408.8 388.7L403.6 388.5L401.0 390.4L397.6 390.7L395.3 389.8L393.2 387.2L390.8 385.8L390.8 384.6L392.5 382.9L394.2 383.0L396.3 381.5L398.4 377.3L400.2 375.3L399.6 374.0L394.9 373.9L392.1 370.4L391.4 368.9L392.3 364.6L389.6 363.3L390.9 360.1L390.9 356.7L389.0 358.4L385.0 357.4L383.3 351.8L380.0 350.7L376.7 344.9L374.1 344.4L376.1 340.1L375.4 338.9L375.9 334.0L378.4 333.3L383.6 333.9L387.4 333.1L389.0 332.7L390.7 330.2L392.8 333.1L396.8 333.3L398.5 334.2L398.9 336.8L401.7 338.2L402.6 339.5L404.8 336.6L410.1 333.1L412.2 334.9L412.6 337.3L415.6 336.2L417.1 337.4L422.0 333.4L423.0 333.7L424.0 332.5L428.2 333.1L431.4 331.6L431.2 329.7L432.9 325.6L437.7 327.7L440.7 326.6L442.4 328.7L442.6 331.2L446.7 332.3L446.1 334.8L447.9 335.3L450.4 337.3L451.5 333.7L454.2 331.1L455.3 332.1L457.7 330.9L461.6 332.7L462.6 330.5L465.0 330.6L466.4 324.7L467.6 323.9L467.3 320.3L468.0 319.3L470.9 318.5L471.7 314.9L475.4 315.7L477.2 312.1L480.6 312.6L481.1 314.0L482.7 314.2L483.1 318.5L487.0 321.5L487.2 322.9L485.5 324.6L484.2 327.5L485.9 328.1L485.4 332.2L483.1 331.8L483.3 337.0L481.0 340.3L479.3 340.4L479.1 342.8L474.5 347.6L471.9 346.2L469.4 346.4L470.9 349.7L469.4 350.9L466.9 351.0L465.8 352.0L461.7 350.2L458.9 351.5L459.5 353.3L458.9 355.0L456.7 355.0L451.2 356.7L448.2 359.4L446.9 362.6L443.6 361.1L443.2 358.7L441.3 358.5L440.3 360.3L436.5 360.7L435.9 362.1L436.5 364.2L434.9 366.3L436.5 369.0L440.4 369.6L445.2 373.5L451.6 373.6L450.0 375.3L449.5 378.9L455.0 382.4L455.4 384.5L458.0 384.5L458.9 386.9L458.0 388.5L460.0 389.2L459.7 391.1L457.1 394.0L451.4 390.6L449.8 391.4L448.1 390.5L446.2 387.9L442.2 386.9L441.0 385.1L438.4 386.9L439.8 388.5L440.0 390.9L438.7 393.2Z" fill="rgb(193,99,94)" stroke="#B9C2B4" stroke-width="1.1"/><path d="M223.3 111.0L219.9 110.7L218.0 109.7L216.9 107.2L215.2 106.2L214.1 103.8L207.5 96.9L202.8 95.4L201.9 93.5L201.7 90.9L199.4 89.5L196.4 86.0L195.8 84.2L191.9 84.7L187.6 79.9L180.9 76.7L180.0 73.9L178.7 72.7L179.5 70.2L176.7 67.6L174.1 67.1L171.3 67.7L169.0 66.7L164.3 66.5L160.2 63.9L154.2 63.5L156.5 63.1L157.6 61.7L160.3 61.2L160.8 57.6L158.3 55.0L155.7 56.3L152.6 56.9L141.4 51.4L139.9 52.1L139.1 48.5L141.4 45.7L141.2 44.0L137.5 42.8L132.0 43.0L125.4 39.0L125.8 35.7L124.2 34.7L120.3 35.6L119.6 34.7L114.5 36.0L110.7 33.7L112.1 30.9L110.6 29.6L112.1 24.7L116.6 23.4L119.2 21.4L119.1 19.9L121.8 19.5L124.8 15.5L125.1 13.5L132.8 12.0L139.1 13.6L141.7 12.7L143.1 10.9L139.7 9.6L138.9 7.6L143.5 8.0L147.8 10.4L149.9 9.5L150.6 7.8L152.8 8.3L156.9 5.5L159.4 5.6L160.7 4.1L163.7 3.2L164.4 4.7L166.9 4.7L168.9 7.8L171.3 5.9L173.2 6.8L175.9 4.3L179.2 3.9L179.4 5.8L181.2 6.3L182.4 10.2L185.9 11.6L189.1 16.1L193.4 18.3L197.1 19.1L201.5 22.4L203.8 22.1L205.8 23.5L207.0 26.0L209.9 27.2L210.9 26.7L212.8 29.4L214.8 30.3L212.9 32.8L215.0 35.7L218.1 37.3L222.5 36.9L223.7 38.6L230.2 40.7L231.0 42.8L230.3 44.3L234.6 45.5L237.3 45.4L239.6 44.4L241.6 45.6L243.2 42.8L245.1 42.4L247.4 43.7L248.9 40.3L250.7 38.9L253.4 38.5L254.4 37.2L256.8 37.8L260.3 35.3L264.1 35.4L267.5 34.4L269.0 35.6L271.7 35.9L273.2 34.5L273.7 32.1L277.7 31.7L278.8 34.3L289.7 37.3L292.8 35.8L295.5 40.0L300.0 41.9L300.8 45.5L298.3 52.1L297.3 53.5L297.1 57.8L294.6 62.4L294.5 65.4L291.5 66.2L289.4 66.0L287.4 67.7L287.8 71.4L282.9 71.0L280.8 71.7L282.9 76.7L280.8 78.8L280.5 80.6L277.1 83.2L273.3 82.8L271.7 83.5L269.0 82.8L266.1 84.8L268.5 89.3L269.6 90.3L271.1 94.2L268.2 94.4L266.4 95.3L266.8 99.1L268.2 101.7L271.1 102.8L274.3 102.6L279.5 103.7L277.6 108.2L278.8 111.5L283.8 117.3L279.4 122.7L276.3 121.2L273.2 124.0L271.8 124.2L271.3 126.7L269.3 126.6L268.0 127.8L265.0 125.2L263.0 122.1L262.6 119.5L260.2 119.5L255.2 121.5L253.8 122.9L251.7 121.7L254.0 120.4L253.5 116.8L249.4 119.3L247.6 118.8L246.5 120.1L244.5 120.4L242.1 118.6L242.5 117.7L239.5 112.9L237.7 111.3L234.4 111.9L231.1 114.2L229.6 113.5L227.9 115.3Z" fill="rgb(58,125,68)" stroke="#B9C2B4" stroke-width="1.1"/><path d="M167.6 123.9L163.1 123.8L162.0 120.6L162.5 116.0L159.0 117.2L157.3 116.0L155.8 116.8L150.8 113.5L147.9 112.8L145.4 110.8L142.3 110.2L138.8 108.1L137.3 108.1L138.0 105.0L135.8 101.5L137.2 95.3L135.7 94.1L136.6 91.7L135.7 90.0L136.4 87.2L134.8 84.5L134.1 78.4L131.6 74.3L132.9 69.1L137.1 68.7L140.3 63.5L145.5 62.0L148.2 59.4L148.0 56.6L150.0 55.3L152.6 56.9L155.7 56.3L158.3 55.0L160.8 57.6L160.3 61.2L157.6 61.7L156.5 63.1L154.2 63.5L160.2 63.9L164.3 66.5L169.0 66.7L171.3 67.7L174.1 67.1L176.7 67.6L179.5 70.2L178.7 72.7L180.0 73.9L180.9 76.7L187.6 79.9L191.9 84.7L195.8 84.2L196.4 86.0L199.4 89.5L201.7 90.9L201.9 93.5L202.8 95.4L207.5 96.9L214.1 103.8L213.5 105.7L211.0 106.2L209.1 104.9L205.3 105.5L202.4 107.7L200.7 109.9L198.0 110.3L197.4 111.6L194.1 113.8L191.6 112.3L190.4 113.5L193.4 117.1L193.2 120.1L191.3 123.3L188.6 124.8L187.6 126.5L185.4 126.8L183.4 128.6L179.2 127.6L173.5 124.6L169.5 125.0L168.1 123.0Z" fill="rgb(162,193,166)" stroke="#B9C2B4" stroke-width="1.1"/><path d="M217.6 165.7L216.5 166.4L210.5 163.1L211.0 157.5L209.6 155.8L207.4 155.9L205.8 154.5L204.8 152.2L202.3 155.0L200.2 155.1L198.2 149.9L195.7 146.4L194.3 142.5L194.3 140.5L193.1 138.0L186.8 134.7L185.4 134.6L187.0 133.1L186.4 130.1L189.7 129.1L192.2 126.3L193.6 126.4L191.3 123.3L193.2 120.1L193.4 117.1L190.4 113.5L191.6 112.3L194.1 113.8L197.4 111.6L198.0 110.3L200.7 109.9L202.4 107.7L205.3 105.5L209.1 104.9L211.0 106.2L213.5 105.7L214.1 103.8L215.2 106.2L216.9 107.2L218.0 109.7L219.9 110.7L223.3 111.0L227.9 115.3L229.6 113.5L231.1 114.2L234.4 111.9L237.7 111.3L239.5 112.9L242.5 117.7L242.1 118.6L244.5 120.4L246.5 120.1L247.6 118.8L249.4 119.3L253.5 116.8L254.0 120.4L251.7 121.7L253.8 122.9L255.2 124.8L257.1 125.9L255.8 127.6L255.8 129.4L258.9 131.1L258.5 132.7L263.2 136.9L261.3 142.7L262.7 145.3L264.7 147.0L262.0 148.9L263.5 151.4L262.4 153.4L263.4 155.0L265.6 155.6L268.1 158.5L268.7 160.1L265.7 160.5L263.8 157.8L260.5 157.9L258.9 157.0L255.9 157.8L253.1 155.5L251.7 155.6L250.1 157.0L246.6 158.1L243.3 158.5L240.8 160.2L239.9 162.3L239.3 166.9L236.8 169.2L239.6 174.6L239.6 176.0L233.7 178.8L233.8 179.4L232.4 177.7L229.6 178.1L224.7 176.5L222.7 174.5L223.9 173.5L223.7 171.3L220.3 169.6Z" fill="rgb(58,125,68)" stroke="#B9C2B4" stroke-width="1.1"/><path d="M182.1 194.4L179.3 197.3L178.2 200.9L175.0 198.1L176.8 195.9L175.5 193.4L173.7 193.7L170.8 192.8L169.1 190.6L166.3 189.5L163.7 190.0L162.2 191.7L157.4 190.7L143.9 190.0L144.1 188.0L145.8 186.2L145.5 182.2L143.5 179.9L145.6 178.2L145.5 176.6L151.7 171.2L155.4 165.8L161.0 162.0L163.7 161.1L163.3 159.7L158.9 159.5L159.9 153.4L162.3 151.0L161.4 149.9L158.7 143.6L160.1 143.1L160.4 141.0L162.7 138.8L166.1 137.7L168.7 135.6L171.2 135.8L173.8 134.6L175.1 135.0L180.1 131.9L180.1 129.7L179.2 127.6L183.4 128.6L185.4 126.8L187.6 126.5L188.6 124.8L191.3 123.3L193.6 126.4L192.2 126.3L189.7 129.1L186.4 130.1L187.0 133.1L185.4 134.6L186.8 134.7L193.1 138.0L194.3 140.5L194.3 142.5L195.7 146.4L198.2 149.9L200.2 155.1L202.3 155.0L204.8 152.2L205.8 154.5L207.4 155.9L209.6 155.8L211.0 157.5L210.5 163.1L213.1 164.7L215.9 167.4L215.7 169.5L212.6 169.3L213.3 171.1L215.5 171.4L217.8 173.3L217.2 177.6L217.5 178.1L213.5 178.1L212.6 180.8L209.0 183.0L210.9 185.4L209.3 186.7L206.6 186.7L205.3 185.5L201.5 187.0L199.4 191.3L200.5 193.5L197.7 194.3L196.5 196.0L194.0 196.5L189.9 194.0L185.0 196.2Z" fill="rgb(219,165,162)" stroke="#B9C2B4" stroke-width="1.1"/><path d="M257.1 198.8L256.5 196.6L252.3 194.7L249.0 196.2L247.3 198.5L244.6 200.3L242.3 196.9L239.7 197.9L237.1 192.3L239.2 186.8L240.6 186.3L243.1 183.0L237.3 180.7L235.7 178.8L233.7 178.8L239.6 176.0L239.6 174.6L236.8 169.2L239.3 166.9L239.9 162.3L240.8 160.2L243.3 158.5L250.1 157.0L251.7 155.6L253.1 155.5L255.9 157.8L258.9 157.0L260.5 157.9L263.8 157.8L265.7 160.5L268.7 160.1L268.1 158.5L265.6 155.6L267.1 153.4L268.6 153.1L270.2 151.1L271.8 151.6L272.6 153.5L274.2 154.3L273.9 156.2L275.7 157.3L276.3 159.5L280.8 162.2L283.2 164.8L286.3 163.6L289.6 163.7L290.2 165.2L294.2 167.1L295.4 168.6L297.1 168.1L299.0 169.7L298.1 174.0L303.1 175.5L306.1 177.6L307.7 176.9L310.2 178.3L312.5 180.8L317.3 182.3L318.4 183.8L315.6 184.7L309.4 190.5L307.6 190.5L306.4 193.3L303.5 194.5L301.8 196.2L302.9 200.0L301.2 202.2L298.8 203.9L300.7 207.7L299.2 210.7L296.4 212.9L295.8 216.1L294.7 217.2L293.6 222.2L291.8 222.9L288.5 218.6L282.7 219.7L278.8 218.3L278.4 216.9L274.8 215.8L272.0 213.8L272.2 212.6L269.3 211.2L266.7 212.5L265.4 210.2L262.6 208.7L266.7 204.1L263.6 203.4L259.1 200.9Z" fill="rgb(167,197,171)" stroke="#B9C2B4" stroke-width="1.1"/><path d="M213.3 171.1L212.6 169.3L215.7 169.5L215.5 171.4Z" fill="#E4E8E1" stroke="#B9C2B4" stroke-width="1.1"/></g>
<text x="760" y="586" font-family="Helvetica,Arial,sans-serif" font-size="12" fill="#55617A">Sub Centre adequacy, 2022-23</text><rect x="948" y="575" width="22" height="12" rx="2" fill="rgb(188,87,82)" stroke="#B9C2B4" stroke-width="0.5"/><rect x="970" y="575" width="22" height="12" rx="2" fill="rgb(201,119,115)" stroke="#B9C2B4" stroke-width="0.5"/><rect x="992" y="575" width="22" height="12" rx="2" fill="rgb(214,152,149)" stroke="#B9C2B4" stroke-width="0.5"/><rect x="1014" y="575" width="22" height="12" rx="2" fill="rgb(227,184,182)" stroke="#B9C2B4" stroke-width="0.5"/><rect x="1036" y="575" width="22" height="12" rx="2" fill="rgb(220,232,221)" stroke="#B9C2B4" stroke-width="0.5"/><rect x="1058" y="575" width="22" height="12" rx="2" fill="rgb(179,205,183)" stroke="#B9C2B4" stroke-width="0.5"/><rect x="1080" y="575" width="22" height="12" rx="2" fill="rgb(139,178,145)" stroke="#B9C2B4" stroke-width="0.5"/><rect x="1102" y="575" width="22" height="12" rx="2" fill="rgb(98,152,106)" stroke="#B9C2B4" stroke-width="0.5"/><rect x="1124" y="575" width="22" height="12" rx="2" fill="rgb(58,125,68)" stroke="#B9C2B4" stroke-width="0.5"/><text x="948" y="602" font-family="Helvetica,Arial,sans-serif" font-size="10.5" fill="#55617A">below requirement</text><text x="1146" y="602" text-anchor="end" font-family="Helvetica,Arial,sans-serif" font-size="10.5" fill="#55617A">above</text>
</svg>